<svg width="2048" height="2048" viewBox="0 0 2048 2048" fill="none" xmlns="http://www.w3.org/2000/svg">
<rect width="2048" height="2048" fill="black"/>
<path d="M505.892 1087.94V1147H490.807V1016.09H505.892V1064.16H507.17C509.472 1059.09 512.923 1055.06 517.526 1052.08C522.17 1049.05 528.349 1047.54 536.062 1047.54C542.753 1047.54 548.612 1048.88 553.641 1051.57C558.669 1054.21 562.568 1058.28 565.338 1063.78C568.151 1069.23 569.557 1076.18 569.557 1084.61V1147H554.472V1085.64C554.472 1077.84 552.447 1071.81 548.399 1067.55C544.393 1063.24 538.832 1061.09 531.716 1061.09C526.773 1061.09 522.341 1062.13 518.42 1064.22C514.543 1066.31 511.474 1069.36 509.216 1073.36C507 1077.37 505.892 1082.23 505.892 1087.94ZM626.047 1149.3C619.825 1149.3 614.179 1148.13 609.108 1145.79C604.037 1143.4 600.01 1139.97 597.027 1135.49C594.044 1130.98 592.552 1125.52 592.552 1119.13C592.552 1113.51 593.66 1108.95 595.876 1105.45C598.092 1101.91 601.054 1099.14 604.761 1097.14C608.468 1095.14 612.559 1093.65 617.034 1092.67C621.551 1091.64 626.089 1090.84 630.649 1090.24C636.615 1089.47 641.451 1088.9 645.159 1088.51C648.909 1088.09 651.636 1087.38 653.341 1086.4C655.088 1085.42 655.961 1083.72 655.961 1081.29V1080.78C655.961 1074.47 654.235 1069.57 650.784 1066.08C647.375 1062.58 642.197 1060.84 635.251 1060.84C628.049 1060.84 622.403 1062.41 618.312 1065.57C614.221 1068.72 611.345 1072.09 609.683 1075.66L595.365 1070.55C597.922 1064.59 601.331 1059.94 605.592 1056.62C609.896 1053.25 614.583 1050.91 619.654 1049.59C624.768 1048.22 629.797 1047.54 634.74 1047.54C637.893 1047.54 641.515 1047.92 645.606 1048.69C649.74 1049.41 653.724 1050.93 657.559 1053.23C661.437 1055.53 664.654 1059 667.211 1063.65C669.768 1068.29 671.047 1074.51 671.047 1082.31V1147H655.961V1133.7H655.194C654.172 1135.84 652.467 1138.12 650.081 1140.54C647.694 1142.97 644.52 1145.04 640.556 1146.74C636.593 1148.45 631.757 1149.3 626.047 1149.3ZM628.348 1135.75C634.314 1135.75 639.342 1134.58 643.433 1132.23C647.566 1129.89 650.677 1126.87 652.765 1123.16C654.896 1119.45 655.961 1115.55 655.961 1111.46V1097.65C655.322 1098.42 653.916 1099.12 651.743 1099.76C649.612 1100.36 647.14 1100.89 644.328 1101.36C641.558 1101.79 638.852 1102.17 636.21 1102.51C633.61 1102.81 631.501 1103.07 629.882 1103.28C625.961 1103.79 622.297 1104.62 618.887 1105.77C615.521 1106.88 612.794 1108.56 610.706 1110.82C608.66 1113.04 607.637 1116.06 607.637 1119.9C607.637 1125.14 609.576 1129.1 613.454 1131.79C617.375 1134.43 622.339 1135.75 628.348 1135.75ZM695.768 1147V1135.49L751.506 1063.9V1062.88H697.558V1048.82H770.938V1060.84L716.734 1131.91V1132.94H772.728V1147H695.768ZM834.315 1149.05C824.855 1149.05 816.695 1146.96 809.834 1142.78C803.016 1138.56 797.753 1132.68 794.045 1125.14C790.381 1117.55 788.548 1108.73 788.548 1098.68C788.548 1088.62 790.381 1079.76 794.045 1072.09C797.753 1064.37 802.909 1058.36 809.514 1054.06C816.162 1049.71 823.918 1047.54 832.781 1047.54C837.895 1047.54 842.945 1048.39 847.93 1050.1C852.916 1051.8 857.455 1054.57 861.545 1058.41C865.636 1062.2 868.896 1067.23 871.325 1073.49C873.754 1079.76 874.969 1087.47 874.969 1096.63V1103.02H799.287V1089.98H859.628C859.628 1084.44 858.52 1079.5 856.304 1075.15C854.131 1070.81 851.02 1067.38 846.972 1064.86C842.966 1062.35 838.236 1061.09 832.781 1061.09C826.773 1061.09 821.574 1062.58 817.185 1065.57C812.838 1068.51 809.493 1072.34 807.149 1077.07C804.805 1081.8 803.634 1086.87 803.634 1092.28V1100.98C803.634 1108.39 804.912 1114.68 807.469 1119.83C810.068 1124.95 813.669 1128.85 818.271 1131.53C822.874 1134.17 828.222 1135.49 834.315 1135.49C838.278 1135.49 841.858 1134.94 845.054 1133.83C848.293 1132.68 851.084 1130.98 853.428 1128.72C855.771 1126.42 857.582 1123.56 858.861 1120.15L873.435 1124.24C871.901 1129.19 869.322 1133.53 865.7 1137.28C862.078 1140.99 857.604 1143.89 852.277 1145.98C846.95 1148.02 840.963 1149.05 834.315 1149.05ZM904.644 1183.82C902.087 1183.82 899.807 1183.61 897.804 1183.18C895.801 1182.8 894.417 1182.41 893.65 1182.03L897.485 1168.73C901.15 1169.67 904.388 1170.01 907.201 1169.76C910.013 1169.5 912.506 1168.24 914.679 1165.98C916.895 1163.77 918.919 1160.17 920.752 1155.18L923.564 1147.51L887.257 1048.82H903.621L930.723 1127.06H931.746L958.848 1048.82H975.212L933.536 1161.32C931.661 1166.39 929.338 1170.59 926.569 1173.91C923.799 1177.28 920.581 1179.77 916.917 1181.39C913.294 1183.01 909.203 1183.82 904.644 1183.82ZM1028.36 1148.6C1020.9 1148.6 1014.15 1146.68 1008.1 1142.85C1002.09 1138.97 997.318 1133.28 993.781 1125.78C990.287 1118.24 988.539 1108.99 988.539 1098.04C988.539 1086.79 990.35 1077.43 993.973 1069.98C997.595 1062.48 1002.41 1056.87 1008.42 1053.16C1014.47 1049.41 1021.1 1047.54 1028.3 1047.54C1033.8 1047.54 1038.38 1048.48 1042.04 1050.35C1045.75 1052.18 1048.73 1054.49 1050.99 1057.26C1053.29 1059.98 1055.04 1062.67 1056.23 1065.31H1057.06V1016.09H1084.23V1147H1057.38V1131.28H1056.23C1054.95 1134 1053.14 1136.71 1050.8 1139.39C1048.5 1142.04 1045.49 1144.23 1041.79 1145.98C1038.12 1147.72 1033.65 1148.6 1028.36 1148.6ZM1036.99 1126.93C1041.38 1126.93 1045.09 1125.74 1048.11 1123.35C1051.18 1120.92 1053.53 1117.53 1055.14 1113.19C1056.81 1108.84 1057.64 1103.75 1057.64 1097.91C1057.64 1092.07 1056.83 1087 1055.21 1082.7C1053.59 1078.39 1051.25 1075.07 1048.18 1072.72C1045.11 1070.38 1041.38 1069.21 1036.99 1069.21C1032.52 1069.21 1028.75 1070.42 1025.68 1072.85C1022.61 1075.28 1020.29 1078.65 1018.71 1082.95C1017.13 1087.26 1016.34 1092.24 1016.34 1097.91C1016.34 1103.62 1017.13 1108.67 1018.71 1113.06C1020.33 1117.4 1022.65 1120.81 1025.68 1123.29C1028.75 1125.71 1032.52 1126.93 1036.99 1126.93ZM1134.61 1148.85C1128.35 1148.85 1122.77 1147.77 1117.87 1145.59C1112.97 1143.38 1109.09 1140.12 1106.23 1135.81C1103.42 1131.47 1102.01 1126.06 1102.01 1119.58C1102.01 1114.12 1103.02 1109.54 1105.02 1105.84C1107.02 1102.13 1109.75 1099.14 1113.2 1096.89C1116.65 1094.63 1120.57 1092.92 1124.96 1091.77C1129.39 1090.62 1134.04 1089.81 1138.9 1089.34C1144.61 1088.75 1149.21 1088.19 1152.7 1087.68C1156.2 1087.13 1158.73 1086.32 1160.31 1085.25C1161.89 1084.19 1162.67 1082.61 1162.67 1080.52V1080.14C1162.67 1076.09 1161.4 1072.96 1158.84 1070.74C1156.33 1068.53 1152.75 1067.42 1148.1 1067.42C1143.2 1067.42 1139.3 1068.51 1136.4 1070.68C1133.51 1072.81 1131.59 1075.49 1130.65 1078.73L1105.47 1076.69C1106.74 1070.72 1109.26 1065.57 1113.01 1061.22C1116.76 1056.83 1121.6 1053.46 1127.52 1051.12C1133.48 1048.73 1140.39 1047.54 1148.23 1047.54C1153.68 1047.54 1158.9 1048.18 1163.89 1049.46C1168.92 1050.74 1173.37 1052.72 1177.25 1055.4C1181.17 1058.09 1184.26 1061.54 1186.52 1065.76C1188.78 1069.93 1189.9 1074.94 1189.9 1080.78V1147H1164.08V1133.38H1163.31C1161.74 1136.45 1159.63 1139.16 1156.99 1141.5C1154.34 1143.8 1151.17 1145.62 1147.46 1146.94C1143.75 1148.21 1139.47 1148.85 1134.61 1148.85ZM1142.41 1130.06C1146.42 1130.06 1149.95 1129.27 1153.02 1127.7C1156.09 1126.08 1158.5 1123.9 1160.25 1121.18C1161.99 1118.45 1162.87 1115.36 1162.87 1111.91V1101.49C1162.01 1102.04 1160.84 1102.55 1159.35 1103.02C1157.9 1103.45 1156.26 1103.85 1154.43 1104.24C1152.6 1104.58 1150.76 1104.9 1148.93 1105.2C1147.1 1105.45 1145.44 1105.69 1143.95 1105.9C1140.75 1106.37 1137.96 1107.11 1135.57 1108.14C1133.19 1109.16 1131.33 1110.54 1130.01 1112.29C1128.69 1114 1128.03 1116.13 1128.03 1118.68C1128.03 1122.39 1129.37 1125.22 1132.06 1127.18C1134.78 1129.1 1138.24 1130.06 1142.41 1130.06ZM1263.25 1048.82V1069.27H1204.13V1048.82H1263.25ZM1217.55 1025.3H1244.78V1116.83C1244.78 1119.34 1245.16 1121.3 1245.93 1122.71C1246.7 1124.07 1247.76 1125.03 1249.13 1125.59C1250.53 1126.14 1252.15 1126.42 1253.99 1126.42C1255.26 1126.42 1256.54 1126.31 1257.82 1126.1C1259.1 1125.84 1260.08 1125.65 1260.76 1125.52L1265.04 1145.79C1263.68 1146.21 1261.76 1146.7 1259.29 1147.26C1256.82 1147.85 1253.81 1148.21 1250.28 1148.34C1243.72 1148.6 1237.96 1147.72 1233.02 1145.72C1228.12 1143.72 1224.3 1140.61 1221.58 1136.39C1218.85 1132.17 1217.51 1126.84 1217.55 1120.41V1025.3ZM1308.99 1148.85C1302.72 1148.85 1297.14 1147.77 1292.24 1145.59C1287.34 1143.38 1283.46 1140.12 1280.61 1135.81C1277.8 1131.47 1276.39 1126.06 1276.39 1119.58C1276.39 1114.12 1277.39 1109.54 1279.39 1105.84C1281.4 1102.13 1284.12 1099.14 1287.58 1096.89C1291.03 1094.63 1294.95 1092.92 1299.34 1091.77C1303.77 1090.62 1308.41 1089.81 1313.27 1089.34C1318.98 1088.75 1323.58 1088.19 1327.08 1087.68C1330.57 1087.13 1333.11 1086.32 1334.68 1085.25C1336.26 1084.19 1337.05 1082.61 1337.05 1080.52V1080.14C1337.05 1076.09 1335.77 1072.96 1333.21 1070.74C1330.7 1068.53 1327.12 1067.42 1322.48 1067.42C1317.58 1067.42 1313.68 1068.51 1310.78 1070.68C1307.88 1072.81 1305.96 1075.49 1305.03 1078.73L1279.84 1076.69C1281.12 1070.72 1283.63 1065.57 1287.38 1061.22C1291.13 1056.83 1295.97 1053.46 1301.89 1051.12C1307.86 1048.73 1314.76 1047.54 1322.6 1047.54C1328.06 1047.54 1333.28 1048.18 1338.26 1049.46C1343.29 1050.74 1347.75 1052.72 1351.62 1055.4C1355.54 1058.09 1358.63 1061.54 1360.89 1065.76C1363.15 1069.93 1364.28 1074.94 1364.28 1080.78V1147H1338.46V1133.38H1337.69C1336.11 1136.45 1334 1139.16 1331.36 1141.5C1328.72 1143.8 1325.54 1145.62 1321.84 1146.94C1318.13 1148.21 1313.85 1148.85 1308.99 1148.85ZM1316.79 1130.06C1320.79 1130.06 1324.33 1129.27 1327.4 1127.7C1330.47 1126.08 1332.87 1123.9 1334.62 1121.18C1336.37 1118.45 1337.24 1115.36 1337.24 1111.91V1101.49C1336.39 1102.04 1335.22 1102.55 1333.73 1103.02C1332.28 1103.45 1330.64 1103.85 1328.8 1104.24C1326.97 1104.58 1325.14 1104.9 1323.31 1105.2C1321.47 1105.45 1319.81 1105.69 1318.32 1105.9C1315.13 1106.37 1312.33 1107.11 1309.95 1108.14C1307.56 1109.16 1305.71 1110.54 1304.39 1112.29C1303.07 1114 1302.4 1116.13 1302.4 1118.68C1302.4 1122.39 1303.75 1125.22 1306.43 1127.18C1309.16 1129.1 1312.61 1130.06 1316.79 1130.06Z" fill="white"/>
<path d="M1399.34 1148.02C1396.19 1148.02 1393.48 1146.89 1391.22 1144.63C1388.96 1142.38 1387.83 1139.67 1387.83 1136.52C1387.83 1133.36 1388.96 1130.66 1391.22 1128.4C1393.48 1126.14 1396.19 1125.01 1399.34 1125.01C1402.49 1125.01 1405.2 1126.14 1407.46 1128.4C1409.72 1130.66 1410.85 1133.36 1410.85 1136.52C1410.85 1138.61 1410.31 1140.52 1409.25 1142.27C1408.23 1144.02 1406.84 1145.42 1405.09 1146.49C1403.39 1147.51 1401.47 1148.02 1399.34 1148.02ZM1466.81 1149.3C1460.59 1149.3 1454.94 1148.13 1449.87 1145.79C1444.8 1143.4 1440.77 1139.97 1437.79 1135.49C1434.81 1130.98 1433.31 1125.52 1433.31 1119.13C1433.31 1113.51 1434.42 1108.95 1436.64 1105.45C1438.85 1101.91 1441.82 1099.14 1445.52 1097.14C1449.23 1095.14 1453.32 1093.65 1457.8 1092.67C1462.31 1091.64 1466.85 1090.84 1471.41 1090.24C1477.38 1089.47 1482.21 1088.9 1485.92 1088.51C1489.67 1088.09 1492.4 1087.38 1494.1 1086.4C1495.85 1085.42 1496.72 1083.72 1496.72 1081.29V1080.78C1496.72 1074.47 1495 1069.57 1491.55 1066.08C1488.14 1062.58 1482.96 1060.84 1476.01 1060.84C1468.81 1060.84 1463.16 1062.41 1459.07 1065.57C1454.98 1068.72 1452.11 1072.09 1450.44 1075.66L1436.13 1070.55C1438.68 1064.59 1442.09 1059.94 1446.35 1056.62C1450.66 1053.25 1455.35 1050.91 1460.42 1049.59C1465.53 1048.22 1470.56 1047.54 1475.5 1047.54C1478.65 1047.54 1482.28 1047.92 1486.37 1048.69C1490.5 1049.41 1494.49 1050.93 1498.32 1053.23C1502.2 1055.53 1505.42 1059 1507.97 1063.65C1510.53 1068.29 1511.81 1074.51 1511.81 1082.31V1147H1496.72V1133.7H1495.96C1494.93 1135.84 1493.23 1138.12 1490.84 1140.54C1488.46 1142.97 1485.28 1145.04 1481.32 1146.74C1477.36 1148.45 1472.52 1149.3 1466.81 1149.3ZM1469.11 1135.75C1475.08 1135.75 1480.1 1134.58 1484.19 1132.23C1488.33 1129.89 1491.44 1126.87 1493.53 1123.16C1495.66 1119.45 1496.72 1115.55 1496.72 1111.46V1097.65C1496.08 1098.42 1494.68 1099.12 1492.5 1099.76C1490.37 1100.36 1487.9 1100.89 1485.09 1101.36C1482.32 1101.79 1479.61 1102.17 1476.97 1102.51C1474.37 1102.81 1472.26 1103.07 1470.64 1103.28C1466.72 1103.79 1463.06 1104.62 1459.65 1105.77C1456.28 1106.88 1453.56 1108.56 1451.47 1110.82C1449.42 1113.04 1448.4 1116.06 1448.4 1119.9C1448.4 1125.14 1450.34 1129.1 1454.22 1131.79C1458.14 1134.43 1463.1 1135.75 1469.11 1135.75ZM1539.34 1147V1048.82H1554.43V1147H1539.34ZM1547.01 1032.45C1544.07 1032.45 1541.54 1031.45 1539.41 1029.45C1537.32 1027.45 1536.27 1025.04 1536.27 1022.23C1536.27 1019.41 1537.32 1017.01 1539.41 1015C1541.54 1013 1544.07 1012 1547.01 1012C1549.95 1012 1552.47 1013 1554.56 1015C1556.69 1017.01 1557.75 1019.41 1557.75 1022.23C1557.75 1025.04 1556.69 1027.45 1554.56 1029.45C1552.47 1031.45 1549.95 1032.45 1547.01 1032.45Z" fill="#A60038"/>
<path d="M534 998.333C528.109 998.333 523.333 1003.11 523.333 1009C523.333 1014.89 528.109 1019.67 534 1019.67C539.891 1019.67 544.667 1014.89 544.667 1009C544.667 1003.11 539.891 998.333 534 998.333ZM534 1009L532 1009L532 1024L534 1024L536 1024L536 1009L534 1009Z" fill="#C1DDFC" fill-opacity="0.2"/>
<path d="M570.148 986.333C564.257 986.333 559.482 991.109 559.482 997C559.482 1002.89 564.257 1007.67 570.148 1007.67C576.039 1007.67 580.815 1002.89 580.815 997C580.815 991.109 576.039 986.333 570.148 986.333ZM570.148 997L568.148 997L568.148 1024L570.148 1024L572.148 1024L572.148 997L570.148 997Z" fill="#C1DDFC" fill-opacity="0.2"/>
<path d="M606.296 974.333C600.405 974.333 595.629 979.109 595.629 985C595.629 990.891 600.405 995.667 606.296 995.667C612.187 995.667 616.963 990.891 616.963 985C616.963 979.109 612.187 974.333 606.296 974.333ZM606.296 985L604.296 985L604.296 1024L606.296 1024L608.296 1024L608.296 985L606.296 985Z" fill="#C1DDFC" fill-opacity="0.2"/>
<path d="M642.49 976.935C648.381 976.937 653.162 972.163 653.168 966.272C653.174 960.381 648.403 955.604 642.512 955.602C636.621 955.599 631.84 960.373 631.834 966.264C631.828 972.155 636.599 976.933 642.49 976.935ZM642.444 1022.63L644.444 1022.63L644.501 966.269L642.501 966.268L640.501 966.267L640.444 1022.62L642.444 1022.63Z" fill="#C1DDFC" fill-opacity="0.2"/>
<path d="M678.593 945.333C672.701 945.333 667.926 950.109 667.926 956C667.926 961.891 672.701 966.667 678.593 966.667C684.484 966.667 689.259 961.891 689.259 956C689.259 950.109 684.484 945.333 678.593 945.333ZM678.593 956L676.593 956L676.593 1024L678.593 1024L680.593 1024L680.593 956L678.593 956Z" fill="#C1DDFC" fill-opacity="0.2"/>
<path d="M714.741 935.333C708.85 935.333 704.074 940.109 704.074 946C704.074 951.891 708.85 956.667 714.741 956.667C720.632 956.667 725.407 951.891 725.407 946C725.407 940.109 720.632 935.333 714.741 935.333ZM714.741 946L712.741 946L712.741 1024L714.741 1024L716.741 1024L716.741 946L714.741 946Z" fill="#C1DDFC" fill-opacity="0.2"/>
<path d="M750.889 924.333C744.998 924.333 740.222 929.109 740.222 935C740.222 940.891 744.998 945.667 750.889 945.667C756.78 945.667 761.555 940.891 761.555 935C761.555 929.109 756.78 924.333 750.889 924.333ZM750.889 935L748.889 935L748.889 1024L750.889 1024L752.889 1024L752.889 935L750.889 935Z" fill="#C1DDFC" fill-opacity="0.2"/>
<path d="M787.037 913.333C781.146 913.333 776.37 918.109 776.37 924C776.37 929.891 781.146 934.667 787.037 934.667C792.928 934.667 797.704 929.891 797.704 924C797.704 918.109 792.928 913.333 787.037 913.333ZM787.037 924L785.037 924L785.037 1024L787.037 1024L789.037 1024L789.037 924L787.037 924Z" fill="#C1DDFC" fill-opacity="0.2"/>
<path d="M823.231 903.354C817.34 903.345 812.544 908.112 812.518 914.003C812.493 919.894 817.248 924.678 823.139 924.688C829.03 924.697 833.826 919.93 833.852 914.039C833.877 908.148 829.123 903.364 823.231 903.354ZM823.185 914.021L821.185 914.018L820.708 1023.62L822.708 1023.63L824.708 1023.63L825.185 914.024L823.185 914.021Z" fill="#C1DDFC" fill-opacity="0.2"/>
<path d="M859.333 893.333C853.442 893.333 848.667 898.109 848.667 904C848.667 909.891 853.442 914.667 859.333 914.667C865.225 914.667 870 909.891 870 904C870 898.109 865.225 893.333 859.333 893.333ZM859.333 904L857.333 904L857.333 1024L859.333 1024L861.333 1024L861.333 904L859.333 904Z" fill="#C1DDFC" fill-opacity="0.2"/>
<path d="M895.481 901.333C889.59 901.333 884.815 906.109 884.815 912C884.815 917.891 889.59 922.667 895.481 922.667C901.372 922.667 906.148 917.891 906.148 912C906.148 906.109 901.372 901.333 895.481 901.333ZM895.481 912L893.481 912L893.481 1024L895.481 1024L897.481 1024L897.481 912L895.481 912Z" fill="#C1DDFC" fill-opacity="0.3"/>
<path d="M931.63 921.333C925.739 921.333 920.963 926.109 920.963 932C920.963 937.891 925.739 942.667 931.63 942.667C937.521 942.667 942.296 937.891 942.296 932C942.296 926.109 937.521 921.333 931.63 921.333ZM931.63 932L929.63 932L929.63 1024L931.63 1024L933.63 1024L933.63 932L931.63 932Z" fill="#C1DDFC" fill-opacity="0.4"/>
<path d="M968.156 965.058C974.047 965.072 978.854 960.308 978.892 954.417C978.93 948.526 974.185 943.739 968.294 943.725C962.403 943.71 957.597 948.474 957.559 954.365C957.521 960.256 962.265 965.043 968.156 965.058ZM967.778 1023.63L969.778 1023.63L970.225 954.396L968.225 954.391L966.225 954.386L965.778 1023.62L967.778 1023.63Z" fill="#C1DDFC" fill-opacity="0.55"/>
<path d="M1003.93 971.333C1009.82 971.333 1014.59 976.109 1014.59 982C1014.59 987.891 1009.82 992.667 1003.93 992.667C998.035 992.667 993.259 987.891 993.259 982C993.259 976.109 998.035 971.333 1003.93 971.333ZM1003.93 982L1005.93 982L1005.93 1024L1003.93 1024L1001.93 1024L1001.93 982L1003.93 982Z" fill="#C1DDFC" fill-opacity="0.7"/>
<path d="M1040.07 1012.67C1045.97 1012.67 1050.74 1007.89 1050.74 1002C1050.74 996.109 1045.97 991.333 1040.07 991.333C1034.18 991.333 1029.41 996.109 1029.41 1002C1029.41 1007.89 1034.18 1012.67 1040.07 1012.67ZM1040.07 1024L1042.07 1024L1042.07 1002L1040.07 1002L1038.07 1002L1038.07 1024L1040.07 1024Z" fill="#C1DDFC" fill-opacity="0.85"/>
<path d="M1112.37 1021.67C1106.48 1021.67 1101.7 1016.89 1101.7 1011C1101.7 1005.11 1106.48 1000.33 1112.37 1000.33C1118.26 1000.33 1123.04 1005.11 1123.04 1011C1123.04 1016.89 1118.26 1021.67 1112.37 1021.67ZM1112.37 1024L1110.37 1024L1110.37 1011L1112.37 1011L1114.37 1011L1114.37 1024L1112.37 1024Z" fill="#0A2F8F"/>
<path d="M1148.52 994.333C1142.63 994.333 1137.85 999.109 1137.85 1005C1137.85 1010.89 1142.63 1015.67 1148.52 1015.67C1154.41 1015.67 1159.19 1010.89 1159.19 1005C1159.19 999.109 1154.41 994.333 1148.52 994.333ZM1148.52 1005L1146.52 1005L1146.52 1024L1148.52 1024L1150.52 1024L1150.52 1005L1148.52 1005Z" fill="#0A2F8F"/>
<path d="M1184.67 986.333C1178.78 986.333 1174 991.109 1174 997C1174 1002.89 1178.78 1007.67 1184.67 1007.67C1190.56 1007.67 1195.33 1002.89 1195.33 997C1195.33 991.109 1190.56 986.333 1184.67 986.333ZM1184.67 997L1182.67 997L1182.67 1024L1184.67 1024L1186.67 1024L1186.67 997L1184.67 997Z" fill="#0A2F8F"/>
<path d="M1220.81 997.667C1226.71 997.667 1231.48 992.891 1231.48 987C1231.48 981.109 1226.71 976.333 1220.81 976.333C1214.92 976.333 1210.15 981.109 1210.15 987C1210.15 992.891 1214.92 997.667 1220.81 997.667ZM1220.81 1015L1222.81 1015L1222.81 987L1220.81 987L1218.81 987L1218.81 1015L1220.81 1015Z" fill="#0A2F8F"/>
<path d="M1256.96 960.333C1251.07 960.333 1246.3 965.109 1246.3 971C1246.3 976.891 1251.07 981.667 1256.96 981.667C1262.85 981.667 1267.63 976.891 1267.63 971C1267.63 965.109 1262.85 960.333 1256.96 960.333ZM1256.96 971L1254.96 971L1254.96 1024L1256.96 1024L1258.96 1024L1258.96 971L1256.96 971Z" fill="#0A2F8F"/>
<path d="M1292.86 967.938C1298.75 967.928 1303.5 963.144 1303.48 957.253C1303.45 951.362 1298.65 946.594 1292.76 946.605C1286.87 946.615 1282.12 951.398 1282.14 957.289C1282.17 963.18 1286.97 967.948 1292.86 967.938ZM1293.11 1023.63L1295.11 1023.62L1294.81 957.268L1292.81 957.271L1290.81 957.274L1291.11 1023.63L1293.11 1023.63Z" fill="#0A2F8F"/>
<path d="M1329.26 955.667C1335.15 955.667 1339.93 950.891 1339.93 945C1339.93 939.109 1335.15 934.333 1329.26 934.333C1323.37 934.333 1318.59 939.109 1318.59 945C1318.59 950.891 1323.37 955.667 1329.26 955.667ZM1329.26 1024L1331.26 1024L1331.26 945L1329.26 945L1327.26 945L1327.26 1024L1329.26 1024Z" fill="#0A2F8F"/>
<path d="M1365.33 936.549C1359.44 936.565 1354.7 941.353 1354.74 947.244C1354.78 953.135 1359.59 957.898 1365.48 957.882C1371.37 957.866 1376.12 953.078 1376.07 947.187C1376.03 941.296 1371.22 936.534 1365.33 936.549ZM1365.41 947.216L1363.41 947.221L1363.94 1023.63L1365.94 1023.63L1367.94 1023.62L1367.41 947.21L1365.41 947.216Z" fill="#0A2F8F"/>
<path d="M1401.56 946.333C1395.66 946.333 1390.89 951.109 1390.89 957C1390.89 962.891 1395.66 967.667 1401.56 967.667C1407.45 967.667 1412.22 962.891 1412.22 957C1412.22 951.109 1407.45 946.333 1401.56 946.333ZM1401.56 957L1399.56 957L1399.56 1024L1401.56 1024L1403.56 1024L1403.56 957L1401.56 957Z" fill="#A60038"/>
<path d="M1437.7 963.333C1431.81 963.333 1427.04 968.109 1427.04 974C1427.04 979.891 1431.81 984.667 1437.7 984.667C1443.59 984.667 1448.37 979.891 1448.37 974C1448.37 968.109 1443.59 963.333 1437.7 963.333ZM1437.7 974L1435.7 974L1435.7 1024L1437.7 1024L1439.7 1024L1439.7 974L1437.7 974Z" fill="#A60038"/>
<path d="M1473.85 979.333C1467.96 979.333 1463.19 984.109 1463.19 990C1463.19 995.891 1467.96 1000.67 1473.85 1000.67C1479.74 1000.67 1484.52 995.891 1484.52 990C1484.52 984.109 1479.74 979.333 1473.85 979.333ZM1473.85 990L1471.85 990L1471.85 1024L1473.85 1024L1475.85 1024L1475.85 990L1473.85 990Z" fill="#A60038"/>
<path d="M1510 999.333C1504.11 999.333 1499.33 1004.11 1499.33 1010C1499.33 1015.89 1504.11 1020.67 1510 1020.67C1515.89 1020.67 1520.67 1015.89 1520.67 1010C1520.67 1004.11 1515.89 999.333 1510 999.333ZM1510 1010H1508V1024H1510H1512V1010H1510Z" fill="#A60038"/>
</svg>
